<mxfile host="www.draw.io" modified="2020-02-11T12:12:24.490Z" agent="Mozilla/5.0 (Macintosh; Intel Mac OS X 10_13_6) AppleWebKit/605.1.15 (KHTML, like Gecko) Version/13.0.5 Safari/605.1.15" etag="1nLAEexFkXRycak4kbCe" version="12.6.7" type="github">
  <diagram id="D_cjfp9-Ma1AKHYBugsp" name="Page-1">
    <mxGraphModel dx="615" dy="499" grid="1" gridSize="10" guides="1" tooltips="1" connect="1" arrows="1" fold="1" page="1" pageScale="1" pageWidth="827" pageHeight="1169" math="0" shadow="0">
      <root>
        <mxCell id="0"/>
        <mxCell id="1" parent="0"/>
        <mxCell id="ooqQUAdtvOBiUHQU9GLW-3" value="" style="edgeStyle=orthogonalEdgeStyle;rounded=0;orthogonalLoop=1;jettySize=auto;html=1;" parent="1" source="ooqQUAdtvOBiUHQU9GLW-1" target="ooqQUAdtvOBiUHQU9GLW-2" edge="1">
          <mxGeometry relative="1" as="geometry"/>
        </mxCell>
        <mxCell id="ooqQUAdtvOBiUHQU9GLW-1" value="original Powerdata" style="rounded=1;whiteSpace=wrap;html=1;fillColor=#dae8fc;strokeColor=#6c8ebf;" parent="1" vertex="1">
          <mxGeometry x="260" y="60" width="120" height="60" as="geometry"/>
        </mxCell>
        <mxCell id="ooqQUAdtvOBiUHQU9GLW-5" value="" style="edgeStyle=orthogonalEdgeStyle;rounded=0;orthogonalLoop=1;jettySize=auto;html=1;" parent="1" source="ooqQUAdtvOBiUHQU9GLW-2" target="ooqQUAdtvOBiUHQU9GLW-4" edge="1">
          <mxGeometry relative="1" as="geometry"/>
        </mxCell>
        <mxCell id="ooqQUAdtvOBiUHQU9GLW-2" value="denoised Powerdata" style="rounded=1;whiteSpace=wrap;html=1;fillColor=#dae8fc;strokeColor=#6c8ebf;" parent="1" vertex="1">
          <mxGeometry x="260" y="150" width="120" height="60" as="geometry"/>
        </mxCell>
        <mxCell id="ooqQUAdtvOBiUHQU9GLW-9" value="" style="edgeStyle=orthogonalEdgeStyle;rounded=0;orthogonalLoop=1;jettySize=auto;html=1;" parent="1" source="ooqQUAdtvOBiUHQU9GLW-4" target="ooqQUAdtvOBiUHQU9GLW-6" edge="1">
          <mxGeometry relative="1" as="geometry"/>
        </mxCell>
        <mxCell id="ooqQUAdtvOBiUHQU9GLW-4" value="slope of Powerdata" style="rounded=1;whiteSpace=wrap;html=1;fillColor=#dae8fc;strokeColor=#6c8ebf;" parent="1" vertex="1">
          <mxGeometry x="260" y="240" width="120" height="60" as="geometry"/>
        </mxCell>
        <mxCell id="ooqQUAdtvOBiUHQU9GLW-11" value="" style="edgeStyle=orthogonalEdgeStyle;rounded=0;orthogonalLoop=1;jettySize=auto;html=1;" parent="1" source="ooqQUAdtvOBiUHQU9GLW-6" edge="1">
          <mxGeometry relative="1" as="geometry">
            <mxPoint x="320" y="430" as="targetPoint"/>
          </mxGeometry>
        </mxCell>
        <mxCell id="ooqQUAdtvOBiUHQU9GLW-6" value="K-means&lt;br&gt;k = n" style="ellipse;whiteSpace=wrap;html=1;fillColor=#e1d5e7;strokeColor=#9673a6;" parent="1" vertex="1">
          <mxGeometry x="270" y="330" width="100" height="60" as="geometry"/>
        </mxCell>
        <mxCell id="ooqQUAdtvOBiUHQU9GLW-14" value="" style="edgeStyle=orthogonalEdgeStyle;rounded=0;orthogonalLoop=1;jettySize=auto;html=1;" parent="1" source="ooqQUAdtvOBiUHQU9GLW-12" edge="1">
          <mxGeometry relative="1" as="geometry">
            <mxPoint x="470" y="460" as="targetPoint"/>
          </mxGeometry>
        </mxCell>
        <mxCell id="ooqQUAdtvOBiUHQU9GLW-17" value="" style="edgeStyle=orthogonalEdgeStyle;rounded=0;orthogonalLoop=1;jettySize=auto;html=1;entryX=1;entryY=0.5;entryDx=0;entryDy=0;" parent="1" source="ooqQUAdtvOBiUHQU9GLW-12" target="ooqQUAdtvOBiUHQU9GLW-18" edge="1">
          <mxGeometry relative="1" as="geometry">
            <mxPoint x="180" y="460" as="targetPoint"/>
          </mxGeometry>
        </mxCell>
        <mxCell id="ooqQUAdtvOBiUHQU9GLW-26" value="" style="edgeStyle=orthogonalEdgeStyle;rounded=0;orthogonalLoop=1;jettySize=auto;html=1;" parent="1" source="ooqQUAdtvOBiUHQU9GLW-12" edge="1">
          <mxGeometry relative="1" as="geometry">
            <mxPoint x="320" y="540" as="targetPoint"/>
          </mxGeometry>
        </mxCell>
        <mxCell id="tPo0XRLEoiu1V5miye6n-33" style="edgeStyle=orthogonalEdgeStyle;rounded=0;orthogonalLoop=1;jettySize=auto;html=1;exitX=0;exitY=0.25;exitDx=0;exitDy=0;entryX=1;entryY=0.5;entryDx=0;entryDy=0;" parent="1" source="ooqQUAdtvOBiUHQU9GLW-12" edge="1" target="tPo0XRLEoiu1V5miye6n-17">
          <mxGeometry relative="1" as="geometry">
            <mxPoint x="200" y="320" as="targetPoint"/>
          </mxGeometry>
        </mxCell>
        <mxCell id="ooqQUAdtvOBiUHQU9GLW-12" value="Featuredata of &lt;br&gt;&amp;nbsp;K-means cluster&amp;nbsp;" style="shape=hexagon;perimeter=hexagonPerimeter2;whiteSpace=wrap;html=1;fillColor=#f8cecc;strokeColor=#b85450;" parent="1" vertex="1">
          <mxGeometry x="255" y="430" width="130" height="60" as="geometry"/>
        </mxCell>
        <mxCell id="ooqQUAdtvOBiUHQU9GLW-15" value="State 1:&lt;br&gt;ramp-up" style="rhombus;whiteSpace=wrap;html=1;fillColor=#fff2cc;strokeColor=#d6b656;" parent="1" vertex="1">
          <mxGeometry x="280" y="540" width="80" height="80" as="geometry"/>
        </mxCell>
        <mxCell id="ooqQUAdtvOBiUHQU9GLW-18" value="State 2:&amp;nbsp;&lt;br&gt;machine off" style="rhombus;whiteSpace=wrap;html=1;fillColor=#fff2cc;strokeColor=#d6b656;" parent="1" vertex="1">
          <mxGeometry x="90" y="420" width="80" height="80" as="geometry"/>
        </mxCell>
        <mxCell id="ooqQUAdtvOBiUHQU9GLW-19" value="min&amp;lt;0&lt;br&gt;max&amp;lt;0&lt;br&gt;mean=min(slope)" style="text;html=1;strokeColor=none;fillColor=none;align=center;verticalAlign=middle;whiteSpace=wrap;rounded=0;" parent="1" vertex="1">
          <mxGeometry x="190" y="470" width="40" height="20" as="geometry"/>
        </mxCell>
        <mxCell id="ooqQUAdtvOBiUHQU9GLW-22" value="min&amp;gt;0&lt;br&gt;max&amp;gt;0&lt;br&gt;mean=max(slope)" style="text;html=1;strokeColor=none;fillColor=none;align=center;verticalAlign=middle;whiteSpace=wrap;rounded=0;" parent="1" vertex="1">
          <mxGeometry x="350" y="500" width="40" height="20" as="geometry"/>
        </mxCell>
        <mxCell id="ooqQUAdtvOBiUHQU9GLW-49" value="&lt;span style=&quot;white-space: normal&quot;&gt;State 5:&amp;nbsp;&lt;/span&gt;&lt;br style=&quot;white-space: normal&quot;&gt;standby" style="rhombus;whiteSpace=wrap;html=1;fillColor=#fff2cc;strokeColor=#d6b656;" parent="1" vertex="1">
          <mxGeometry x="720" y="120" width="80" height="80" as="geometry"/>
        </mxCell>
        <mxCell id="tPo0XRLEoiu1V5miye6n-22" style="edgeStyle=orthogonalEdgeStyle;rounded=0;orthogonalLoop=1;jettySize=auto;html=1;entryX=0.5;entryY=1;entryDx=0;entryDy=0;" parent="1" source="tPo0XRLEoiu1V5miye6n-2" target="tPo0XRLEoiu1V5miye6n-5" edge="1">
          <mxGeometry relative="1" as="geometry">
            <Array as="points">
              <mxPoint x="630" y="458"/>
              <mxPoint x="630" y="390"/>
            </Array>
          </mxGeometry>
        </mxCell>
        <mxCell id="tPo0XRLEoiu1V5miye6n-2" value="Powerdata of the cluster &amp;nbsp;" style="rounded=1;whiteSpace=wrap;html=1;fillColor=#dae8fc;strokeColor=#6c8ebf;" parent="1" vertex="1">
          <mxGeometry x="470" y="435" width="100" height="45" as="geometry"/>
        </mxCell>
        <mxCell id="tPo0XRLEoiu1V5miye6n-3" value="slope(mean)=0" style="text;html=1;strokeColor=none;fillColor=none;align=center;verticalAlign=middle;whiteSpace=wrap;rounded=0;" parent="1" vertex="1">
          <mxGeometry x="400" y="430" width="40" height="20" as="geometry"/>
        </mxCell>
        <mxCell id="tPo0XRLEoiu1V5miye6n-23" style="edgeStyle=orthogonalEdgeStyle;rounded=0;orthogonalLoop=1;jettySize=auto;html=1;exitX=0.5;exitY=0;exitDx=0;exitDy=0;entryX=0.5;entryY=1;entryDx=0;entryDy=0;" parent="1" source="tPo0XRLEoiu1V5miye6n-5" target="tPo0XRLEoiu1V5miye6n-7" edge="1">
          <mxGeometry relative="1" as="geometry"/>
        </mxCell>
        <mxCell id="tPo0XRLEoiu1V5miye6n-5" value="&lt;span style=&quot;white-space: normal&quot;&gt;K-means&lt;/span&gt;&lt;br style=&quot;white-space: normal&quot;&gt;&lt;span style=&quot;white-space: normal&quot;&gt;k = 4&lt;/span&gt;" style="ellipse;whiteSpace=wrap;html=1;fillColor=#e1d5e7;strokeColor=#9673a6;" parent="1" vertex="1">
          <mxGeometry x="570" y="330" width="120" height="60" as="geometry"/>
        </mxCell>
        <mxCell id="tPo0XRLEoiu1V5miye6n-24" style="edgeStyle=orthogonalEdgeStyle;rounded=0;orthogonalLoop=1;jettySize=auto;html=1;exitX=0;exitY=0.5;exitDx=0;exitDy=0;entryX=1;entryY=0.5;entryDx=0;entryDy=0;" parent="1" source="tPo0XRLEoiu1V5miye6n-7" target="tPo0XRLEoiu1V5miye6n-8" edge="1">
          <mxGeometry relative="1" as="geometry"/>
        </mxCell>
        <mxCell id="tPo0XRLEoiu1V5miye6n-25" style="edgeStyle=orthogonalEdgeStyle;rounded=0;orthogonalLoop=1;jettySize=auto;html=1;exitX=1;exitY=0.5;exitDx=0;exitDy=0;" parent="1" source="tPo0XRLEoiu1V5miye6n-7" target="tPo0XRLEoiu1V5miye6n-10" edge="1">
          <mxGeometry relative="1" as="geometry"/>
        </mxCell>
        <mxCell id="tPo0XRLEoiu1V5miye6n-7" value="&lt;span style=&quot;white-space: normal&quot;&gt;Featuredata of&amp;nbsp;&lt;/span&gt;&lt;br style=&quot;white-space: normal&quot;&gt;&lt;span style=&quot;white-space: normal&quot;&gt;&amp;nbsp;K-means cluster&amp;nbsp;&lt;/span&gt;" style="shape=hexagon;perimeter=hexagonPerimeter2;whiteSpace=wrap;html=1;fillColor=#f8cecc;strokeColor=#b85450;" parent="1" vertex="1">
          <mxGeometry x="560" y="240" width="140" height="60" as="geometry"/>
        </mxCell>
        <mxCell id="tPo0XRLEoiu1V5miye6n-8" value="&lt;span style=&quot;white-space: normal&quot;&gt;State 3:&amp;nbsp;&lt;/span&gt;&lt;br style=&quot;white-space: normal&quot;&gt;shutdown" style="rhombus;whiteSpace=wrap;html=1;fillColor=#fff2cc;strokeColor=#d6b656;" parent="1" vertex="1">
          <mxGeometry x="420" y="230" width="80" height="80" as="geometry"/>
        </mxCell>
        <mxCell id="tPo0XRLEoiu1V5miye6n-10" value="&lt;span style=&quot;white-space: normal&quot;&gt;State 6:&amp;nbsp;&lt;/span&gt;&lt;br style=&quot;white-space: normal&quot;&gt;processing" style="rhombus;whiteSpace=wrap;html=1;fillColor=#fff2cc;strokeColor=#d6b656;" parent="1" vertex="1">
          <mxGeometry x="747" y="230" width="80" height="80" as="geometry"/>
        </mxCell>
        <mxCell id="tPo0XRLEoiu1V5miye6n-12" value="" style="endArrow=classic;html=1;entryX=0;entryY=1;entryDx=0;entryDy=0;" parent="1" target="ooqQUAdtvOBiUHQU9GLW-49" edge="1" source="tPo0XRLEoiu1V5miye6n-7">
          <mxGeometry width="50" height="50" relative="1" as="geometry">
            <mxPoint x="745" y="240" as="sourcePoint"/>
            <mxPoint x="790" y="310" as="targetPoint"/>
          </mxGeometry>
        </mxCell>
        <mxCell id="tPo0XRLEoiu1V5miye6n-13" value="mean(powerdata)&lt;br&gt;=min(cluster)" style="text;html=1;strokeColor=none;fillColor=none;align=center;verticalAlign=middle;whiteSpace=wrap;rounded=0;" parent="1" vertex="1">
          <mxGeometry x="510" y="290" width="40" height="20" as="geometry"/>
        </mxCell>
        <mxCell id="tPo0XRLEoiu1V5miye6n-14" value="mean(powerdata)&lt;br&gt;=max(cluster)" style="text;html=1;strokeColor=none;fillColor=none;align=center;verticalAlign=middle;whiteSpace=wrap;rounded=0;" parent="1" vertex="1">
          <mxGeometry x="707" y="300" width="40" height="20" as="geometry"/>
        </mxCell>
        <mxCell id="tPo0XRLEoiu1V5miye6n-15" value="mean(powerdata)&lt;br&gt;=submin(cluster)" style="text;html=1;strokeColor=none;fillColor=none;align=center;verticalAlign=middle;whiteSpace=wrap;rounded=0;rotation=50;" parent="1" vertex="1">
          <mxGeometry x="570" y="190" width="40" height="20" as="geometry"/>
        </mxCell>
        <mxCell id="tPo0XRLEoiu1V5miye6n-16" value="mean(powerdata)&lt;br&gt;=submax(cluster)" style="text;html=1;strokeColor=none;fillColor=none;align=center;verticalAlign=middle;whiteSpace=wrap;rounded=0;rotation=-40;" parent="1" vertex="1">
          <mxGeometry x="667" y="190" width="40" height="20" as="geometry"/>
        </mxCell>
        <mxCell id="tPo0XRLEoiu1V5miye6n-17" value="the state of powerdata in rest cluster = state of neighbours&amp;nbsp;" style="ellipse;whiteSpace=wrap;html=1;aspect=fixed;fillColor=#ffe6cc;strokeColor=#d79b00;" parent="1" vertex="1">
          <mxGeometry x="75" y="260" width="110" height="110" as="geometry"/>
        </mxCell>
        <mxCell id="tPo0XRLEoiu1V5miye6n-29" value="" style="endArrow=classic;html=1;entryX=1;entryY=1;entryDx=0;entryDy=0;exitX=0.243;exitY=0.033;exitDx=0;exitDy=0;exitPerimeter=0;" parent="1" source="tPo0XRLEoiu1V5miye6n-7" target="tPo0XRLEoiu1V5miye6n-30" edge="1">
          <mxGeometry width="50" height="50" relative="1" as="geometry">
            <mxPoint x="670" y="240" as="sourcePoint"/>
            <mxPoint x="605" y="180" as="targetPoint"/>
          </mxGeometry>
        </mxCell>
        <mxCell id="tPo0XRLEoiu1V5miye6n-30" value="&lt;span style=&quot;white-space: normal&quot;&gt;State 4:&amp;nbsp;&lt;/span&gt;&lt;br style=&quot;white-space: normal&quot;&gt;set-up" style="rhombus;whiteSpace=wrap;html=1;fillColor=#fff2cc;strokeColor=#d6b656;" parent="1" vertex="1">
          <mxGeometry x="480" y="120" width="80" height="80" as="geometry"/>
        </mxCell>
      </root>
    </mxGraphModel>
  </diagram>
</mxfile>
